<?xml version="1.0" encoding="utf-8"?>
<!-- Generator: Adobe Illustrator 26.3.1, SVG Export Plug-In . SVG Version: 6.00 Build 0)  -->
<svg version="1.1" id="Layer_1" xmlns="http://www.w3.org/2000/svg" xmlns:xlink="http://www.w3.org/1999/xlink" x="0px" y="0px"
	 viewBox="0 0 1000 1000" style="enable-background:new 0 0 1000 1000;" xml:space="preserve">
<style type="text/css">
	.st0{fill:#31C38D;}
	.st1{fill:#30C48E;}
</style>
<g>
	<path class="st0" d="M504.4,121.1c-6.2-0.9-12.5-0.9-18.8-1c-9.6-0.2-19.3,0.1-28.9,0.9c-8,0.7-15.9,1.7-23.7,3
		c-7.7,1.3-15.4,3-22.8,5.7c-4.6,1.6-9.2,3.2-13.7,5c-15.8,6.3-30.4,14.8-44.3,24.7c-14.8,10.5-28,22.9-40.5,35.9
		c-10.4,10.8-19.7,22.6-28.1,35.1c-6.4,9.5-12.3,19.2-17.9,29.2c-2.9,5.3-5.3,10.8-9.9,14.9c-9.5,8.5-20.2,7.8-30.9,3
		c-9.2-4.2-18.9-7.3-27.5-12.9c-9.4-6.1-14.8-14.4-13.9-25.7c0.7-8.7,4.7-16.1,8.5-23.5c6.3-12.4,13.5-24.3,21.1-35.9
		c7.1-10.9,15.2-21.1,23.6-31.2c8.3-9.9,16.9-19.5,26.4-28.2c11.6-10.7,23.3-21.2,36.2-30.4c9.9-7,20.1-13.2,30.5-19.3
		c13.7-8,28.2-14.2,42.9-19.5c11.4-4.1,23.1-7.1,35-9.7c10.9-2.4,21.9-3.4,32.8-5.6c3.2-0.6,6.6-0.9,9.8-0.8
		c8.4,0.1,16.6-1.1,25-1.2c16.6-0.1,33.1,0.2,49.6,2.3c11.4,1.5,22.6,3.4,33.9,5.7c7.4,1.5,14.6,3.7,21.9,5.5
		c7,1.7,13.8,4.5,20.5,7.3c4.9,2,9.9,3.5,14.7,5.8c10,4.8,20.3,8.9,29.8,14.7c8.2,5,16.5,9.6,24.5,15c9.7,6.5,19.1,13.6,28.1,21
		c10.4,8.6,19.8,18.2,29,28.1c3.2,3.5,6.6,7,9.2,10.8c3.5,5,7.1,3.8,10.7,1.9c4.9-2.6,10.2-3.8,15.2-6c9.7-4.2,20.1-6.9,29.8-11.2
		c5-2.2,10.1-3.7,15.1-5.9c5.3-2.3,11.4-3.5,17.2-1.6c2.8,0.9,4.4,3.4,4.9,6.6c1.2,7.6-0.6,14.7-2.8,21.9
		c-4.3,14-9.6,27.7-14.2,41.7c-3,9-6.2,18-9.4,27c-4,11.4-7.6,23-11.5,34.5c-3.1,9.2-6.6,18.2-9.8,27.3c-3.1,9.2-6,18.4-9,27.6
		c-1.7,5.1-3.5,10.2-5.3,15.3c-0.5,1.4-1,2.6-3,1.4c-6.3-3.9-13.5-6-20.2-9.2c-8.5-4.1-17.1-7.9-25.7-11.7
		c-11.1-4.9-22.4-9.3-33.2-14.6c-10.2-5-20.6-9.2-30.9-14c-10.5-5-21.5-9.1-32-14.2c-12.8-6.2-26.7-10.3-37.5-20.2
		c-5.5-5-5.5-13.1,0.5-17.6c3.9-2.9,7.9-5.8,12.3-7.9c10.6-5,21.5-9.5,32.2-14.3c10.7-4.8,21.4-9.7,32.1-14.6
		c1.6-0.7,2.8-1.2,0.6-3.2c-15.3-13.3-31.9-24.7-49.7-34.3c-15.8-8.5-32.3-15.6-49.5-21.2c-11.7-3.8-23.7-6.7-35.7-9.3
		C520.2,122.7,512.3,122.2,504.4,121.1z"/>
	<path class="st1" d="M863.9,383H136.1c-16.6,0-29.5,14.4-27.7,30.9l58.2,527.8c1.6,14.1,13.5,24.8,27.7,24.8h611.4
		c14.2,0,26.1-10.7,27.7-24.8l58.2-527.8C893.4,397.4,880.5,383,863.9,383z M625.8,529.1l-39.9,198.3c-8,41.3-22.5,70.8-43.4,88.7
		c-20.9,17.9-49.4,26.8-85.4,26.8c-24.6,0-45.9-4.2-63.7-12.5c-14-6.5-25.6-15.3-34.7-26.4c-4.2-5.1-3.7-12.6,1-17.2l31-29.6
		c5.2-5,13.6-4.6,18.3,0.9c13.1,15.5,29.4,23.3,49,23.3c28.9,0,46.8-16.8,53.6-50.3l28-142c1.5-7.8-4.4-15.1-12.4-15.1h-82.4
		c-8,0-13.9-7.3-12.4-15.1l7-34.8c1.2-5.9,6.4-10.1,12.4-10.1h161.8C621.4,514,627.4,521.3,625.8,529.1z"/>
</g>
</svg>
